<?xml version="1.0" standalone="no"?>
<!DOCTYPE svg PUBLIC "-//W3C//DTD SVG 20010904//EN"
 "http://www.w3.org/TR/2001/REC-SVG-20010904/DTD/svg10.dtd">
<svg version="1.0" xmlns="http://www.w3.org/2000/svg"
 width="105.000000pt" height="99.000000pt" viewBox="0 0 105.000000 99.000000"
 preserveAspectRatio="xMidYMid meet">

<g transform="translate(0.000000,99.000000) scale(0.100000,-0.100000)"
fill="#000000" stroke="none">
<path d="M510 904 c0 -17 22 -14 28 4 2 7 -3 12 -12 12 -9 0 -16 -7 -16 -16z"/>
<path d="M405 880 c-3 -5 -1 -10 4 -10 6 0 11 5 11 10 0 6 -2 10 -4 10 -3 0
-8 -4 -11 -10z"/>
<path d="M550 855 c0 -20 5 -25 25 -25 20 0 25 5 25 25 0 20 -5 25 -25 25 -20
0 -25 -5 -25 -25z"/>
<path d="M550 775 c0 -23 -4 -25 -45 -25 -38 0 -45 3 -45 20 0 11 -4 20 -10
20 -5 0 -10 -10 -10 -21 0 -18 -4 -21 -29 -16 -23 5 -34 -1 -64 -31 -40 -41
-76 -113 -77 -152 0 -23 3 -21 48 22 91 89 219 148 319 148 38 0 44 2 34 14
-11 13 -92 46 -113 46 -4 0 -8 -11 -8 -25z"/>
<path d="M410 780 c0 -5 5 -10 11 -10 5 0 7 5 4 10 -3 6 -8 10 -11 10 -2 0 -4
-4 -4 -10z"/>
<path d="M805 759 c-4 -6 4 -22 16 -36 30 -31 31 -101 4 -153 -59 -113 -208
-225 -352 -265 -26 -7 -39 -14 -27 -14 39 -2 145 41 217 88 160 105 237 260
177 359 -21 35 -25 37 -35 21z"/>
<path d="M328 283 c17 -2 47 -2 65 0 17 2 3 4 -33 4 -36 0 -50 -2 -32 -4z"/>
<path d="M20 140 c0 -34 4 -42 26 -50 14 -6 37 -9 52 -9 20 1 22 2 7 6 -11 2
-30 6 -42 9 -19 3 -23 11 -23 39 0 18 -4 37 -10 40 -6 4 -10 -10 -10 -35z"/>
<path d="M153 135 c0 -27 2 -38 4 -22 2 15 2 37 0 50 -2 12 -4 0 -4 -28z"/>
<path d="M682 133 c1 -37 2 -40 5 -15 2 17 7 32 11 32 4 0 24 -14 45 -31 21
-17 40 -30 42 -28 4 5 8 70 5 84 -2 6 -6 -7 -9 -29 l-6 -39 -43 37 c-24 20
-46 36 -48 36 -2 0 -3 -21 -2 -47z"/>
<path d="M194 146 c-3 -8 -4 -25 -1 -38 3 -17 5 -15 6 10 1 30 3 32 36 32 32
0 35 -2 35 -30 0 -16 4 -30 9 -30 5 0 6 15 2 33 -6 28 -11 32 -44 35 -26 2
-39 -1 -43 -12z"/>
<path d="M323 153 c-7 -2 -13 -18 -13 -34 0 -24 4 -29 23 -28 17 1 18 2 4 6
-12 3 -17 12 -15 26 2 17 10 22 33 22 28 0 30 -3 28 -34 -1 -18 -7 -38 -15
-42 -19 -12 0 -11 23 1 12 7 19 21 19 40 0 40 -43 61 -87 43z"/>
<path d="M432 129 c-2 -32 2 -38 24 -43 15 -4 28 -5 31 -3 2 3 -7 7 -21 11
-19 5 -26 14 -29 39 l-4 32 -1 -36z"/>
<path d="M520 131 c0 -16 -6 -32 -12 -34 -8 -3 -6 -6 5 -6 13 -1 17 7 17 34 0
19 -2 35 -5 35 -3 0 -5 -13 -5 -29z"/>
<path d="M621 153 c21 -5 32 -45 16 -55 -17 -11 -49 -10 -67 2 -13 9 -13 11 0
21 13 9 13 10 0 6 -24 -6 -17 -31 12 -41 53 -19 101 27 66 62 -7 7 -19 11 -27
11 -13 -1 -13 -2 0 -6z"/>
<path d="M826 147 c-24 -18 -17 -48 14 -58 24 -9 24 -8 6 6 -19 14 -17 15 21
15 46 0 61 13 43 35 -15 19 -60 19 -84 2z m65 -12 c0 -5 -7 -12 -16 -13 -23
-5 -47 6 -40 19 8 13 56 8 56 -6z"/>
<path d="M947 142 c20 -17 21 -21 8 -32 -9 -7 -13 -15 -10 -18 2 -3 11 1 19 7
11 9 20 10 35 2 28 -16 38 -14 16 3 -19 14 -19 15 0 37 l20 22 -27 -17 c-25
-16 -28 -16 -55 -1 l-28 17 22 -20z"/>
</g>
</svg>
